<svg width="40" height="40" viewBox="0 0 40 40" fill="none" xmlns="http://www.w3.org/2000/svg">
<path d="M24.0543 2.78562C24.1086 2.58256 24.2024 2.3922 24.3303 2.2254C24.4582 2.0586 24.6177 1.91864 24.7997 1.81351C24.9817 1.70839 25.1827 1.64016 25.3911 1.61272C25.5995 1.58528 25.8112 1.59918 26.0143 1.65361C28.9804 2.42752 31.6867 3.97812 33.8543 6.14573C36.0219 8.31333 37.5725 11.0196 38.3464 13.9857C38.4008 14.1888 38.4147 14.4005 38.3873 14.6089C38.3598 14.8173 38.2916 15.0183 38.1865 15.2003C38.0814 15.3823 37.9414 15.5418 37.7746 15.6697C37.6078 15.7976 37.4174 15.8914 37.2144 15.9458C37.0792 15.9813 36.9401 15.9994 36.8004 15.9998C36.4481 15.9999 36.1055 15.8837 35.826 15.6692C35.5465 15.4548 35.3455 15.1541 35.2544 14.8137C34.6235 12.392 33.3581 10.1823 31.5887 8.41256C29.8193 6.6428 27.6099 5.37699 25.1883 4.74564C24.985 4.69154 24.7944 4.59791 24.6274 4.47009C24.4604 4.34227 24.3202 4.18278 24.2149 4.00074C24.1096 3.8187 24.0412 3.61767 24.0136 3.40917C23.986 3.20067 23.9999 2.98878 24.0543 2.78562ZM23.5882 11.1457C26.3463 11.8817 28.1183 13.6557 28.8543 16.4138C28.9455 16.7541 29.1464 17.0548 29.4259 17.2692C29.7055 17.4837 30.048 17.5999 30.4003 17.5998C30.54 17.5994 30.6792 17.5813 30.8143 17.5458C31.0174 17.4915 31.2077 17.3977 31.3745 17.2698C31.5413 17.1418 31.6813 16.9823 31.7864 16.8003C31.8916 16.6183 31.9598 16.4173 31.9872 16.2089C32.0147 16.0005 32.0008 15.7888 31.9463 15.5857C30.9223 11.7537 28.2463 9.07768 24.4143 8.05367C24.2112 7.99944 23.9995 7.98572 23.7912 8.01331C23.5829 8.04089 23.382 8.10924 23.2001 8.21445C23.0182 8.31966 22.8588 8.45967 22.731 8.62649C22.6032 8.7933 22.5095 8.98366 22.4552 9.18668C22.401 9.38971 22.3873 9.60143 22.4149 9.80976C22.4425 10.0181 22.5108 10.2189 22.616 10.4008C22.7212 10.5828 22.8612 10.7422 23.0281 10.87C23.1949 10.9978 23.3852 11.0915 23.5882 11.1457ZM38.0744 26.8919L28.6523 22.6698L28.6263 22.6578C28.1372 22.4486 27.6036 22.3646 27.0738 22.4135C26.5441 22.4624 26.0349 22.6426 25.5923 22.9378C25.5402 22.9722 25.4901 23.0096 25.4423 23.0498L20.5742 27.1999C17.4902 25.7018 14.3062 22.5418 12.8081 19.4978L16.9642 14.5557C17.0042 14.5057 17.0422 14.4557 17.0782 14.4017C17.367 13.9603 17.5423 13.4544 17.5884 12.9289C17.6344 12.4034 17.5499 11.8746 17.3422 11.3897V11.3657L13.1081 1.92761C12.8336 1.29414 12.3616 0.766433 11.7625 0.423276C11.1634 0.0801199 10.4694 -0.0600834 9.78411 0.0235955C7.07403 0.380212 4.58642 1.71115 2.78591 3.76782C0.985402 5.8245 -0.00488191 8.46626 1.80975e-05 11.1997C1.80975e-05 27.0799 12.9201 40 28.8003 40C31.5337 40.0049 34.1755 39.0146 36.2322 37.2141C38.2889 35.4136 39.6198 32.926 39.9764 30.2159C40.0602 29.5308 39.9203 28.837 39.5775 28.2379C39.2348 27.6389 38.7075 27.1667 38.0744 26.8919Z" fill="#64748b"/>
</svg>
